<svg width="77" height="75" viewBox="0 0 77 75" fill="none" xmlns="http://www.w3.org/2000/svg">
<path class="svgBg" d="M76.072 33.6506L60.252 3.83312C59.6571 2.68973 58.7969 1.73459 57.7566 1.06227C56.7163 0.389955 55.5321 0.023777 54.321 0H22.6752C21.464 0.0231292 20.2795 0.389037 19.2391 1.06142C18.1987 1.73381 17.3386 2.6893 16.7442 3.83312L0.918223 33.5854C0.316602 34.72 0 36.0057 0 37.3142C0 38.6228 0.316602 39.9085 0.918223 41.043L16.7382 71.03C17.3267 72.19 18.1823 73.1653 19.2215 73.8609C20.2608 74.5566 21.4485 74.949 22.6691 75H54.315C55.5355 74.9546 56.7241 74.5667 57.7648 73.8743C58.8055 73.1818 59.6625 72.2085 60.252 71.0495L76.072 41.2321C76.6801 40.0774 77 38.7709 77 37.4413C77 36.1118 76.6801 34.8052 76.072 33.6506Z" fill="#4285F4"/>
<path class="svgShape" opacity="0.07" d="M56.2214 27.9531L41.6405 28.2008L40.1668 35.3716L48.3655 44.2568L48.4798 45.6584L29.1891 24.7458L22.5784 30.9778L29.8748 39.5828L22.5483 50.2216L45.0812 74.9935H54.3145C55.535 74.9481 56.7236 74.5602 57.7643 73.8677C58.805 73.1753 59.662 72.202 60.2515 71.043L73.3767 46.2712L56.2214 27.9531Z" fill="black"/>
<path class="svgShape" d="M47.2647 50.1434H40.7563L26.6326 31.0039H22.5483V24.7458H29.1891L43.3188 43.8853H47.2647V38.9309L56.2214 47.0078L47.2647 55.0978V50.1434Z" fill="white"/>
<path class="svgShape" d="M40.1668 35.3585L43.3187 31.0821H47.2647V36.0365L56.2213 27.9531L47.2647 19.8696V24.824H40.7563L36.5697 30.4889L40.1668 35.3585Z" fill="white"/>
<path class="svgShape" d="M29.8448 39.6089L26.6326 43.9635H22.5483V50.2217H29.1891L33.4298 44.4785L29.8448 39.6089Z" fill="white"/>
</svg>
