<svg width="77" height="75" viewBox="0 0 77 75" fill="none" xmlns="http://www.w3.org/2000/svg">
<path class="svgBg" d="M76.0754 33.6564L60.2547 3.83378C59.6598 2.6902 58.7995 1.73489 57.7592 1.06246C56.7189 0.390022 55.5345 0.0237811 54.3235 0H22.6762C21.465 0.0231332 20.2804 0.389104 19.24 1.06161C18.1995 1.73411 17.3394 2.68977 16.7449 3.83378L0.918264 33.5782C0.316616 34.713 0 35.9989 0 37.3077C0 38.6165 0.316616 39.9024 0.918264 41.0371L16.7389 71.0293C17.3275 72.1895 18.1831 73.1649 19.2224 73.8607C20.2617 74.5565 21.4495 74.949 22.6702 75H54.3175C55.5379 74.9546 56.7267 74.5666 57.7674 73.8741C58.8081 73.1815 59.6651 72.208 60.2547 71.0489L76.0754 41.2262C76.6814 40.0729 77 38.7685 77 37.4413C77 36.1141 76.6814 34.8097 76.0754 33.6564Z" fill="#4285F4"/>
<path class="svgShape" opacity="0.07" d="M58.1006 25.1021L29.6595 30.8919L18.5911 40.9198L22.2003 44.8318L18.9159 48.0918L43.7357 74.9804H54.3168C55.5373 74.935 56.7261 74.5471 57.7668 73.8545C58.8075 73.1619 59.6645 72.1885 60.2541 71.0293L74.9438 43.3582L58.1006 25.1021Z" fill="black"/>
<path class="svgShape" d="M44.632 53.9859H32.4808C32.3212 53.9859 32.1682 53.9172 32.0554 53.7949C31.9426 53.6726 31.8792 53.5068 31.8792 53.3339C31.8792 53.1609 31.9426 52.9951 32.0554 52.8728C32.1682 52.7505 32.3212 52.6819 32.4808 52.6819H44.632C44.7915 52.6819 44.9445 52.7505 45.0573 52.8728C45.1701 52.9951 45.2335 53.1609 45.2335 53.3339C45.2335 53.5068 45.1701 53.6726 45.0573 53.7949C44.9445 53.9172 44.7915 53.9859 44.632 53.9859Z" fill="white"/>
<path class="svgShape" d="M40.8964 47.6028H36.2404V53.3274H40.8964V47.6028Z" fill="white"/>
<path class="svgShape" d="M51.5257 43.3583C51.3766 43.3586 51.2289 43.3265 51.0915 43.2637C50.954 43.201 50.8296 43.109 50.7257 42.9931L42.5567 33.7934L37.0646 40.0526C36.8724 40.2726 36.6105 40.4056 36.3315 40.425C36.0526 40.4443 35.7772 40.3486 35.5607 40.1569L31.41 36.5253L27.0127 42.8562C26.9097 43.0051 26.7762 43.1262 26.6228 43.2099C26.4694 43.2936 26.3002 43.3377 26.1285 43.3387H18.5851V47.0486C18.5867 47.4735 18.7431 47.8804 19.0203 48.1809C19.2974 48.4813 19.6729 48.6508 20.0649 48.6525H57.078C57.47 48.6508 57.8454 48.4813 58.1226 48.1809C58.3998 47.8804 58.5562 47.4735 58.5578 47.0486V43.3583H51.5257Z" fill="white"/>
<path class="svgShape" d="M25.569 40.9328L30.3273 34.0867C30.4169 33.9582 30.5293 33.8505 30.658 33.7699C30.7867 33.6893 30.9289 33.6374 31.0764 33.6173C31.2239 33.5973 31.3735 33.6095 31.5166 33.6531C31.6596 33.6968 31.7932 33.7711 31.9093 33.8716L36.1562 37.588L41.7446 31.2179C41.8481 31.1009 41.9722 31.0076 42.1097 30.9438C42.2472 30.8799 42.3951 30.8468 42.5446 30.8463C42.6938 30.8459 42.8414 30.8781 42.9789 30.9408C43.1163 31.0035 43.2407 31.0955 43.3447 31.2114L51.9949 40.9262H58.5578V26.1844C58.5562 25.7596 58.3998 25.3526 58.1226 25.0522C57.8454 24.7518 57.47 24.5822 57.078 24.5805H20.0649C19.6729 24.5822 19.2974 24.7518 19.0203 25.0522C18.7431 25.3526 18.5867 25.7596 18.5851 26.1844V40.9328H25.569Z" fill="white"/>
</svg>
