<svg width="77" height="75" viewBox="0 0 77 75" fill="none" xmlns="http://www.w3.org/2000/svg">
<path class="svgBg" d="M76.0754 33.6564L60.2547 3.83378C59.6598 2.6902 58.7995 1.73489 57.7592 1.06246C56.7189 0.390022 55.5345 0.0237811 54.3235 0H22.6762C21.465 0.0231332 20.2804 0.389104 19.24 1.06161C18.1995 1.73411 17.3394 2.68977 16.7449 3.83378L0.918264 33.5782C0.316616 34.713 0 35.9989 0 37.3077C0 38.6165 0.316616 39.9024 0.918264 41.0371L16.7389 71.0293C17.3275 72.1895 18.1831 73.1649 19.2224 73.8607C20.2617 74.5565 21.4495 74.949 22.6702 75H54.3175C55.5379 74.9546 56.7267 74.5666 57.7674 73.8741C58.8081 73.1815 59.6651 72.208 60.2547 71.0489L76.0754 41.2262C76.6814 40.0729 77 38.7685 77 37.4413C77 36.1141 76.6814 34.8097 76.0754 33.6564Z" fill="#4285F4"/>
<path class="svgShape" opacity="0.07" d="M60.2542 71.0293L71.4009 50.0087L47.3391 23.8503L45.8773 24.5023L39.9942 18.1257L37.5279 29.1055L33.5456 24.7892L29.3829 25.6564L29.2987 29.5162L34.6284 35.293L34.5081 39.6223L37.5158 42.8823L37.7083 45.2491L28.3302 35.0844L24.366 35.3712L23.9209 39.6223L29.6837 45.8555L29.2927 49.924L52.4041 74.9805H54.317C55.5375 74.9351 56.7262 74.5471 57.7669 73.8545C58.8076 73.162 59.6647 72.1885 60.2542 71.0293Z" fill="black"/>
<path class="svgShape" d="M26.0924 35.5342C26.4136 35.5342 26.7277 35.6375 26.9947 35.8309C27.2618 36.0243 27.47 36.2993 27.5929 36.6209C27.7159 36.9426 27.748 37.2966 27.6854 37.6381C27.6227 37.9796 27.468 38.2932 27.2409 38.5394C27.0137 38.7856 26.7243 38.9533 26.4093 39.0212C26.0942 39.0891 25.7676 39.0543 25.4709 38.921C25.1741 38.7878 24.9204 38.5622 24.742 38.2727C24.5635 37.9832 24.4682 37.6428 24.4682 37.2946C24.4682 36.8277 24.6393 36.38 24.9439 36.0498C25.2485 35.7197 25.6616 35.5342 26.0924 35.5342ZM26.0924 33.9955C25.4904 33.9955 24.9019 34.189 24.4013 34.5515C23.9008 34.914 23.5107 35.4293 23.2803 36.0321C23.0499 36.6349 22.9896 37.2983 23.1071 37.9383C23.2245 38.5782 23.5144 39.1661 23.9401 39.6275C24.3658 40.0889 24.9081 40.4031 25.4986 40.5304C26.089 40.6577 26.701 40.5923 27.2572 40.3426C27.8134 40.0929 28.2888 39.6701 28.6232 39.1275C28.9577 38.585 29.1362 37.9471 29.1362 37.2946C29.1362 36.4196 28.8155 35.5805 28.2447 34.9618C27.6739 34.3431 26.8997 33.9955 26.0924 33.9955Z" fill="white"/>
<path class="svgShape" d="M54.7379 33.9107H39.988V30.6833H46.996C47.161 30.6543 47.3093 30.5575 47.4102 30.413C47.511 30.2685 47.5566 30.0874 47.5374 29.9074V24.4501C47.5616 24.2671 47.5184 24.081 47.4171 23.9321C47.3158 23.7833 47.1645 23.6836 46.996 23.6547H39.988V18.1061H36.9803V34.0607L36.6915 34.0281C35.8843 34.0281 35.11 34.3757 34.5392 34.9944C33.9684 35.6131 33.6477 36.4522 33.6477 37.3272C33.6477 38.2022 33.9684 39.0413 34.5392 39.6601C35.11 40.2788 35.8843 40.6264 36.6915 40.6264C36.7938 40.6264 36.89 40.6264 36.9863 40.5938V56.8939H39.994V51.1823H44.1447C44.3793 51.1823 44.5658 50.8367 44.5658 50.4064V44.9231C44.5658 44.4993 44.3793 44.1537 44.1447 44.1537H39.994V40.8937H54.7379C55.2853 40.8937 55.7365 40.5481 55.7365 40.1178V34.6866C55.7184 34.2302 55.2673 33.9107 54.7379 33.9107ZM36.6915 39.0746C36.463 39.0778 36.2363 39.0287 36.0265 38.9304C35.8166 38.8322 35.6283 38.687 35.4737 38.5045C35.3192 38.3219 35.2019 38.1061 35.1297 37.871C35.0574 37.636 35.0317 37.387 35.0543 37.1405C35.0768 36.8939 35.1472 36.6553 35.2607 36.4402C35.3742 36.2252 35.5283 36.0385 35.7129 35.8924C35.8976 35.7463 36.1086 35.6442 36.3321 35.5925C36.5557 35.5409 36.7868 35.541 37.0103 35.5929V39.042C36.9053 39.0642 36.7985 39.0751 36.6915 39.0746Z" fill="white"/>
<path class="svgShape" d="M31.4703 45.862C31.7916 45.862 32.1056 45.9652 32.3727 46.1586C32.6398 46.3521 32.8479 46.627 32.9709 46.9487C33.0938 47.2704 33.126 47.6243 33.0633 47.9658C33.0006 48.3073 32.8459 48.621 32.6188 48.8672C32.3917 49.1134 32.1023 49.281 31.7872 49.349C31.4721 49.4169 31.1456 49.382 30.8488 49.2488C30.552 49.1155 30.2984 48.8899 30.1199 48.6004C29.9414 48.3109 29.8462 47.9706 29.8462 47.6224C29.8477 47.156 30.0194 46.7092 30.3236 46.3795C30.6279 46.0497 31.0401 45.8637 31.4703 45.862ZM31.4703 44.3232C30.8683 44.3232 30.2798 44.5167 29.7793 44.8792C29.2787 45.2418 28.8886 45.757 28.6582 46.3599C28.4278 46.9627 28.3676 47.626 28.485 48.266C28.6024 48.906 28.8923 49.4938 29.318 49.9552C29.7437 50.4166 30.2861 50.7308 30.8765 50.8581C31.467 50.9854 32.079 50.9201 32.6352 50.6704C33.1913 50.4207 33.6667 49.9978 34.0012 49.4553C34.3356 48.9127 34.5142 48.2749 34.5142 47.6224C34.5142 47.1891 34.4354 46.7601 34.2825 46.3599C34.1295 45.9596 33.9053 45.5959 33.6226 45.2895C33.34 44.9832 33.0044 44.7402 32.6352 44.5744C32.2659 44.4086 31.8701 44.3232 31.4703 44.3232Z" fill="white"/>
<path class="svgShape" d="M31.4703 25.4477C31.7916 25.4477 32.1056 25.551 32.3727 25.7444C32.6398 25.9378 32.8479 26.2128 32.9709 26.5345C33.0938 26.8561 33.126 27.2101 33.0633 27.5516C33.0006 27.8931 32.8459 28.2067 32.6188 28.4529C32.3917 28.6991 32.1023 28.8668 31.7872 28.9347C31.4721 29.0026 31.1456 28.9678 30.8488 28.8345C30.552 28.7013 30.2984 28.4757 30.1199 28.1862C29.9414 27.8967 29.8462 27.5563 29.8462 27.2081C29.8462 26.7412 30.0173 26.2935 30.3219 25.9633C30.6265 25.6332 31.0396 25.4477 31.4703 25.4477ZM31.4703 23.909C30.8683 23.909 30.2798 24.1025 29.7793 24.465C29.2787 24.8275 28.8886 25.3428 28.6582 25.9456C28.4278 26.5484 28.3676 27.2118 28.485 27.8518C28.6024 28.4917 28.8923 29.0796 29.318 29.541C29.7437 30.0024 30.2861 30.3166 30.8765 30.4439C31.467 30.5712 32.079 30.5058 32.6352 30.2561C33.1913 30.0064 33.6667 29.5836 34.0012 29.041C34.3356 28.4985 34.5142 27.8606 34.5142 27.2081C34.5142 26.3332 34.1935 25.494 33.6226 24.8753C33.0518 24.2566 32.2776 23.909 31.4703 23.909Z" fill="white"/>
</svg>
