<svg width="77" height="75" viewBox="0 0 77 75" fill="none" xmlns="http://www.w3.org/2000/svg">
<path class="svgBg" d="M76.0804 33.6652L60.2581 3.83478C59.6631 2.6909 58.8028 1.73535 57.7624 1.06274C56.7219 0.390124 55.5375 0.0237873 54.3263 0H22.6757C21.4649 0.0257231 20.2812 0.392868 19.2411 1.06528C18.2009 1.7377 17.3403 2.69219 16.7439 3.83478L0.915599 33.5674C0.315637 34.7031 0 35.9891 0 37.2978C0 38.6066 0.315637 39.8926 0.915599 41.0283L16.7379 71.0283C17.3275 72.188 18.1833 73.1629 19.2226 73.8588C20.2618 74.5546 21.4492 74.9477 22.6697 75H54.3203C55.5411 74.9559 56.7305 74.5683 57.7715 73.8754C58.8125 73.1826 59.6694 72.2081 60.2581 71.0478L76.0804 41.2174C76.6831 40.0662 77 38.7651 77 37.4413C77 36.1176 76.6831 34.8165 76.0804 33.6652Z" fill="#4285F4"/>
<path class="svgBg" d="M54.6146 26.701H53.3462L49.8415 22.9167L23.4936 30.1173L26.9021 33.159L23.4936 36.5752L26.7157 39.6169L23.4756 43.0332L27.0824 46.0749L23.4756 49.4911L47.1544 75H54.5424C55.7624 74.9563 56.9508 74.5725 57.991 73.8864C59.0312 73.2003 59.8874 72.2354 60.4757 71.0865L73.2439 47.2373H73.2018L54.6146 26.701Z" fill="#4285F4"/>
<path class="svgBg" d="M47.8807 22.9167L28.339 26.3592L29.2589 28.1805L24.4486 31.4099L26.1443 34.536H22.5366V49.6559L47.1291 75H54.5189C55.7391 74.9563 56.9278 74.5725 57.9682 73.8863C59.0087 73.2001 59.8651 72.2351 60.4535 71.086L72.3049 48.9583L47.8807 22.9167Z" fill="#407ADD"/>
<path class="svgShape" d="M48.7367 26.3969H28.2632L29.4501 22.9167H47.5499L48.7367 26.3969ZM52.5763 31.5388H24.4237L25.6106 28.2483H51.3894L52.5763 31.5388ZM44.8675 34.7051L43.8172 36.8705H33.1828L32.1324 34.7051H22.5366V50H54.4634V34.7051H44.8675Z" fill="white"/>
</svg>
